<mxfile host="app.diagrams.net" modified="2023-11-08T11:33:52.100Z" agent="Mozilla/5.0 (Windows NT 10.0; Win64; x64) AppleWebKit/537.36 (KHTML, like Gecko) Chrome/116.0.0.0 Safari/537.36 OPR/102.0.0.0" etag="k3riUOa3xnW4VmCTQAh2" version="22.0.8" type="github">
  <diagram name="Страница — 1" id="7rhQbuFe_-9_RXr2HvZd">
    <mxGraphModel dx="1552" dy="834" grid="1" gridSize="10" guides="1" tooltips="1" connect="1" arrows="1" fold="1" page="1" pageScale="1" pageWidth="827" pageHeight="1169" math="0" shadow="0">
      <root>
        <mxCell id="0" />
        <mxCell id="1" parent="0" />
        <mxCell id="s2ad0YZ6BnSwc8JYi69Y-1" value="" style="shape=folder;fontStyle=1;spacingTop=10;tabWidth=60;tabHeight=30;tabPosition=left;html=1;whiteSpace=wrap;" vertex="1" parent="1">
          <mxGeometry x="190" y="120" width="210" height="140" as="geometry" />
        </mxCell>
        <mxCell id="s2ad0YZ6BnSwc8JYi69Y-2" value="WebUI" style="shape=folder;fontStyle=1;spacingTop=10;tabWidth=40;tabHeight=14;tabPosition=left;html=1;whiteSpace=wrap;" vertex="1" parent="1">
          <mxGeometry x="310" y="190" width="70" height="50" as="geometry" />
        </mxCell>
        <mxCell id="s2ad0YZ6BnSwc8JYi69Y-3" value="MobileUI" style="shape=folder;fontStyle=1;spacingTop=10;tabWidth=40;tabHeight=14;tabPosition=left;html=1;whiteSpace=wrap;" vertex="1" parent="1">
          <mxGeometry x="210" y="190" width="70" height="50" as="geometry" />
        </mxCell>
        <mxCell id="s2ad0YZ6BnSwc8JYi69Y-4" value="UI" style="text;align=center;fontStyle=1;verticalAlign=middle;spacingLeft=3;spacingRight=3;strokeColor=none;rotatable=0;points=[[0,0.5],[1,0.5]];portConstraint=eastwest;html=1;" vertex="1" parent="1">
          <mxGeometry x="180" y="110" width="80" height="46" as="geometry" />
        </mxCell>
      </root>
    </mxGraphModel>
  </diagram>
</mxfile>
